#N canvas -75 -22 1920 966 12;
#X obj 452 561 soundfiler;
#X floatatom 452 592 8 0 0 0 - - - 0;
#X floatatom 535 674 9 0 0 0 - - - 0;
#X obj 549 707 i;
#X obj 357 688 pack 0 0;
#X msg 357 714 1 \, \$1 \$2;
#X obj 453 762 line~;
#X obj 168 998 *~;
#X obj 368 1158 dac~, f 5;
#N canvas 0 50 450 250 (subpatch) 0;
#X array left 1.06154e+07 float 0;
#X coords 0 1 1.06154e+07 -1 200 140 1;
#X restore 61 22 graph;
#N canvas 0 50 450 250 (subpatch) 0;
#X array right 1.06154e+07 float 0;
#X coords 0 1 1.06154e+07 -1 200 140 1;
#X restore 269 22 graph;
#X floatatom 198 943 5 0 0 0 - - - 0;
#X obj 149 897 tabread4~ left;
#X obj 423 235 bng 80 250 50 0 empty empty empty 0 -10 0 12 #9c00ff #c6feff #00faff;
#X obj 629 887 tabread4~ right;
#X obj 633 1005 *~;
#X floatatom 661 964 5 0 0 0 - - - 0;
#X obj 503 462 metro;
#X msg 431 527 read -resize carnival.wav left right;
#X obj 503 495 bng 19 250 50 0 empty empty empty 0 -10 0 12 #00faff #9c00ff #c7c6ff;
#X obj 445 174 receive soundtrack;
#X obj 1216 559 soundfiler;
#X floatatom 1216 590 8 0 0 0 - - - 0;
#X floatatom 1299 672 9 0 0 0 - - - 0;
#X obj 1313 705 i;
#X obj 1260 735 pack 0 0;
#X obj 1242 629 / 44.1;
#X msg 1260 761 1 \, \$1 \$2;
#X obj 1260 797 line~;
#X floatatom 1078 985 5 0 0 0 - - - 0;
#X obj 1183 233 bng 30 250 50 0 empty empty empty 0 -10 0 12 #ffc7c6 #feffc6 #c7c6ff;
#X floatatom 1514 999 5 0 0 0 - - - 0;
#X msg 1027 614 1;
#X msg 988 660 1;
#X obj 1053 1029 *~;
#X obj 1487 1046 *~;
#X obj 1257 1152 dac~;
#X obj 1183 195 receive charge;
#X obj 1786 543 soundfiler;
#X floatatom 1786 574 8 0 0 0 - - - 0;
#X floatatom 1869 656 9 0 0 0 - - - 0;
#X obj 1883 689 i;
#X obj 1830 719 pack 0 0;
#X obj 1812 613 / 44.1;
#X msg 1830 745 1 \, \$1 \$2;
#X obj 1830 781 line~;
#X floatatom 1648 969 5 0 0 0 - - - 0;
#X obj 1759 217 bng 30 250 50 0 empty empty empty 0 -10 0 12 #c7c6ff #c6feff #2f004d;
#X floatatom 2042 930 5 0 0 0 - - - 0;
#X msg 1659 635 1;
#X msg 1607 678 1;
#X obj 1623 1013 *~;
#X obj 2057 1030 *~;
#X obj 1836 1155 dac~;
#X obj 1759 178 receive damage;
#N canvas 0 50 450 250 (subpatch) 0;
#X array left1 133120 float 0;
#X coords 0 1 133119 -1 200 140 1;
#X restore 772 29 graph;
#N canvas 0 50 450 250 (subpatch) 0;
#X array right1 133120 float 0;
#X coords 0 1 133119 -1 200 140 1 0 0;
#X restore 980 29 graph;
#X msg 1183 526 read -resize charge.wav left1 right1;
#X obj 1052 944 tabread4~ left1;
#X obj 1435 903 tabread4~ right1;
#X msg 1759 509 read -resize damage.wav left2 right2;
#X obj 1622 928 tabread4~ left2;
#X obj 1889 926 tabread4~ right2;
#N canvas 0 50 450 250 (subpatch) 0;
#X array left2 45056 float 2;
#X coords 0 1 45056 -1 200 140 1 0 0;
#X restore 1336 25 graph;
#N canvas 0 50 450 250 (subpatch) 0;
#X array right2 45056 float 2;
#X coords 0 1 45056 -1 200 140 1;
#X restore 1544 25 graph;
#X obj 2396 547 soundfiler;
#X floatatom 2396 578 8 0 0 0 - - - 0;
#X floatatom 2479 660 9 0 0 0 - - - 0;
#X obj 2493 693 i;
#X obj 2440 723 pack 0 0;
#X obj 2422 617 / 44.1;
#X msg 2440 749 1 \, \$1 \$2;
#X obj 2440 785 line~;
#X floatatom 2345 1011 5 0 0 0 - - - 0;
#X obj 2369 221 bng 30 250 50 0 empty empty empty 0 -10 0 12 #feffc6 #c6ffc7 #ff0400;
#X floatatom 2652 934 5 0 0 0 - - - 0;
#X msg 2336 688 1;
#X msg 2275 698 1, f 2;
#X obj 2320 1055 *~;
#X obj 2526 1030 *~;
#X obj 2446 1159 dac~;
#X obj 2369 182 receive detonation;
#X msg 2369 513 read -resize detonation.wav left3 right3;
#X obj 2499 930 tabread4~ right3;
#X obj 2300 930 tabread4~ left3;
#N canvas 0 50 450 250 (subpatch) 0;
#X array left3 45056 float 4;
#X coords 0 1 45055 -1 200 140 1 0 0;
#X restore 1973 22 graph;
#N canvas 0 50 450 250 (subpatch) 0;
#X array right3 45056 float 4;
#X coords 0 1 45055 -1 200 140 1;
#X restore 2181 22 graph;
#X msg 138 609 10;
#X msg 9 619 10;
#X obj 478 631 / 88.2;
#X connect 0 0 1 0;
#X connect 1 0 4 0;
#X connect 1 0 89 0;
#X connect 2 0 3 0;
#X connect 2 0 17 1;
#X connect 3 0 4 1;
#X connect 4 0 5 0;
#X connect 5 0 6 0;
#X connect 6 0 12 0;
#X connect 6 0 14 0;
#X connect 7 0 8 0;
#X connect 11 0 7 1;
#X connect 12 0 7 0;
#X connect 13 0 18 0;
#X connect 13 0 17 0;
#X connect 13 0 88 0;
#X connect 13 0 87 0;
#X connect 14 0 15 0;
#X connect 15 0 8 1;
#X connect 16 0 15 1;
#X connect 17 0 19 0;
#X connect 18 0 0 0;
#X connect 19 0 18 0;
#X connect 20 0 13 0;
#X connect 21 0 22 0;
#X connect 22 0 26 0;
#X connect 22 0 25 0;
#X connect 23 0 24 0;
#X connect 24 0 25 1;
#X connect 25 0 27 0;
#X connect 26 0 23 0;
#X connect 27 0 28 0;
#X connect 28 0 58 0;
#X connect 28 0 59 0;
#X connect 29 0 34 1;
#X connect 30 0 57 0;
#X connect 30 0 33 0;
#X connect 30 0 32 0;
#X connect 31 0 35 1;
#X connect 32 0 31 0;
#X connect 33 0 29 0;
#X connect 34 0 36 0;
#X connect 35 0 36 1;
#X connect 37 0 30 0;
#X connect 38 0 39 0;
#X connect 39 0 43 0;
#X connect 39 0 42 0;
#X connect 40 0 41 0;
#X connect 41 0 42 1;
#X connect 42 0 44 0;
#X connect 43 0 40 0;
#X connect 44 0 45 0;
#X connect 45 0 61 0;
#X connect 45 0 62 0;
#X connect 46 0 51 1;
#X connect 47 0 60 0;
#X connect 47 0 50 0;
#X connect 47 0 49 0;
#X connect 48 0 52 1;
#X connect 49 0 48 0;
#X connect 50 0 46 0;
#X connect 51 0 53 0;
#X connect 52 0 53 1;
#X connect 54 0 47 0;
#X connect 57 0 21 0;
#X connect 58 0 34 0;
#X connect 59 0 35 0;
#X connect 60 0 38 0;
#X connect 61 0 51 0;
#X connect 62 0 52 0;
#X connect 65 0 66 0;
#X connect 66 0 70 0;
#X connect 66 0 69 0;
#X connect 67 0 68 0;
#X connect 68 0 69 1;
#X connect 69 0 71 0;
#X connect 70 0 67 0;
#X connect 71 0 72 0;
#X connect 72 0 83 0;
#X connect 72 0 84 0;
#X connect 73 0 78 1;
#X connect 74 0 82 0;
#X connect 74 0 77 0;
#X connect 74 0 76 0;
#X connect 75 0 79 1;
#X connect 76 0 75 0;
#X connect 77 0 73 0;
#X connect 78 0 80 0;
#X connect 79 0 80 1;
#X connect 81 0 74 0;
#X connect 82 0 65 0;
#X connect 83 0 79 0;
#X connect 84 0 78 0;
#X connect 87 0 16 0;
#X connect 88 0 11 0;
#X connect 89 0 2 0;
